<mxfile host="Electron" modified="2023-09-23T18:53:29.146Z" agent="Mozilla/5.0 (Windows NT 10.0; Win64; x64) AppleWebKit/537.36 (KHTML, like Gecko) draw.io/21.7.5 Chrome/114.0.5735.289 Electron/25.8.1 Safari/537.36" etag="9h8rZFvGV1pYpJhJULm8" version="21.7.5" type="device">
  <diagram name="‫עמוד-1‬" id="PIUXfP5wfecW3DTeMQHT">
    <mxGraphModel dx="1050" dy="621" grid="1" gridSize="10" guides="1" tooltips="1" connect="1" arrows="1" fold="1" page="1" pageScale="1" pageWidth="1169" pageHeight="827" math="0" shadow="0">
      <root>
        <mxCell id="0" />
        <mxCell id="1" parent="0" />
        <mxCell id="ul5spbDsc-mCCxbf8Q7h-1" value="&lt;font size=&quot;1&quot; face=&quot;Garamond&quot;&gt;&lt;b style=&quot;font-size: 26px;&quot;&gt;Traceback&lt;/b&gt;&lt;/font&gt;" style="rounded=0;whiteSpace=wrap;html=1;fillColor=#ffe6cc;strokeColor=#d79b00;" parent="1" vertex="1">
          <mxGeometry x="320" y="320" width="400" height="120" as="geometry" />
        </mxCell>
        <mxCell id="ul5spbDsc-mCCxbf8Q7h-2" value="&lt;font size=&quot;1&quot; face=&quot;Garamond&quot;&gt;&lt;b style=&quot;font-size: 26px;&quot;&gt;Matrix Memory&lt;/b&gt;&lt;/font&gt;" style="rounded=0;whiteSpace=wrap;html=1;fillColor=#f8cecc;strokeColor=#b85450;" parent="1" vertex="1">
          <mxGeometry x="50" y="320" width="170" height="120" as="geometry" />
        </mxCell>
        <mxCell id="ul5spbDsc-mCCxbf8Q7h-4" value="&lt;font size=&quot;1&quot; face=&quot;Garamond&quot;&gt;&lt;b style=&quot;font-size: 26px;&quot;&gt;Controller&lt;/b&gt;&lt;/font&gt;" style="rounded=0;whiteSpace=wrap;html=1;fillColor=#d5e8d4;strokeColor=#82b366;" parent="1" vertex="1">
          <mxGeometry x="320" y="120" width="400" height="120" as="geometry" />
        </mxCell>
        <mxCell id="ul5spbDsc-mCCxbf8Q7h-5" value="" style="endArrow=classic;html=1;rounded=0;strokeWidth=3;" parent="1" edge="1">
          <mxGeometry width="50" height="50" relative="1" as="geometry">
            <mxPoint x="361" y="240" as="sourcePoint" />
            <mxPoint x="361" y="320" as="targetPoint" />
          </mxGeometry>
        </mxCell>
        <mxCell id="ul5spbDsc-mCCxbf8Q7h-9" value="en_traceback" style="edgeLabel;html=1;align=center;verticalAlign=middle;resizable=0;points=[];fontSize=14;fontFamily=Garamond;" parent="ul5spbDsc-mCCxbf8Q7h-5" vertex="1" connectable="0">
          <mxGeometry x="-0.0515" y="-1" relative="1" as="geometry">
            <mxPoint y="1" as="offset" />
          </mxGeometry>
        </mxCell>
        <mxCell id="ul5spbDsc-mCCxbf8Q7h-6" value="" style="endArrow=classic;html=1;rounded=0;strokeWidth=3;" parent="1" edge="1">
          <mxGeometry width="50" height="50" relative="1" as="geometry">
            <mxPoint x="441" y="240" as="sourcePoint" />
            <mxPoint x="441" y="320" as="targetPoint" />
          </mxGeometry>
        </mxCell>
        <mxCell id="ul5spbDsc-mCCxbf8Q7h-10" value="start_of_traceback" style="edgeLabel;html=1;align=center;verticalAlign=middle;resizable=0;points=[];fontFamily=Garamond;fontSize=14;" parent="ul5spbDsc-mCCxbf8Q7h-6" vertex="1" connectable="0">
          <mxGeometry x="-0.1424" relative="1" as="geometry">
            <mxPoint y="-10" as="offset" />
          </mxGeometry>
        </mxCell>
        <mxCell id="ul5spbDsc-mCCxbf8Q7h-7" value="" style="endArrow=classic;html=1;rounded=0;strokeWidth=3;" parent="1" edge="1">
          <mxGeometry width="50" height="50" relative="1" as="geometry">
            <mxPoint x="521" y="240" as="sourcePoint" />
            <mxPoint x="521" y="320" as="targetPoint" />
          </mxGeometry>
        </mxCell>
        <mxCell id="ul5spbDsc-mCCxbf8Q7h-11" value="finished" style="edgeLabel;html=1;align=center;verticalAlign=middle;resizable=0;points=[];fontSize=14;fontFamily=Garamond;" parent="ul5spbDsc-mCCxbf8Q7h-7" vertex="1" connectable="0">
          <mxGeometry x="-0.1424" relative="1" as="geometry">
            <mxPoint y="6" as="offset" />
          </mxGeometry>
        </mxCell>
        <mxCell id="ul5spbDsc-mCCxbf8Q7h-8" value="" style="endArrow=none;html=1;rounded=0;strokeWidth=3;startArrow=classic;startFill=1;endFill=0;" parent="1" edge="1">
          <mxGeometry width="50" height="50" relative="1" as="geometry">
            <mxPoint x="601" y="240" as="sourcePoint" />
            <mxPoint x="601" y="320" as="targetPoint" />
          </mxGeometry>
        </mxCell>
        <mxCell id="ul5spbDsc-mCCxbf8Q7h-12" value="next_row" style="edgeLabel;html=1;align=center;verticalAlign=middle;resizable=0;points=[];fontFamily=Garamond;fontSize=14;" parent="ul5spbDsc-mCCxbf8Q7h-8" vertex="1" connectable="0">
          <mxGeometry x="-0.1879" y="-2" relative="1" as="geometry">
            <mxPoint y="7" as="offset" />
          </mxGeometry>
        </mxCell>
        <mxCell id="ul5spbDsc-mCCxbf8Q7h-13" value="" style="endArrow=classic;html=1;rounded=0;exitX=1;exitY=0.5;exitDx=0;exitDy=0;entryX=0;entryY=0.5;entryDx=0;entryDy=0;strokeWidth=3;" parent="1" source="ul5spbDsc-mCCxbf8Q7h-2" target="ul5spbDsc-mCCxbf8Q7h-1" edge="1">
          <mxGeometry width="50" height="50" relative="1" as="geometry">
            <mxPoint x="440" y="360" as="sourcePoint" />
            <mxPoint x="490" y="310" as="targetPoint" />
          </mxGeometry>
        </mxCell>
        <mxCell id="ul5spbDsc-mCCxbf8Q7h-15" value="&lt;font face=&quot;Garamond&quot; style=&quot;font-size: 14px;&quot;&gt;data_packet&lt;/font&gt;" style="edgeLabel;html=1;align=center;verticalAlign=middle;resizable=0;points=[];labelBackgroundColor=none;" parent="ul5spbDsc-mCCxbf8Q7h-13" vertex="1" connectable="0">
          <mxGeometry x="-0.0467" y="-2" relative="1" as="geometry">
            <mxPoint x="-6" y="-15" as="offset" />
          </mxGeometry>
        </mxCell>
        <mxCell id="ul5spbDsc-mCCxbf8Q7h-14" value="" style="endArrow=classic;html=1;rounded=0;exitX=1;exitY=0.25;exitDx=0;exitDy=0;strokeWidth=3;" parent="1" source="ul5spbDsc-mCCxbf8Q7h-1" edge="1">
          <mxGeometry width="50" height="50" relative="1" as="geometry">
            <mxPoint x="440" y="360" as="sourcePoint" />
            <mxPoint x="870" y="350" as="targetPoint" />
          </mxGeometry>
        </mxCell>
        <mxCell id="ul5spbDsc-mCCxbf8Q7h-16" value="&lt;font face=&quot;Garamond&quot; style=&quot;font-size: 14px;&quot;&gt;query_sequence_out&lt;/font&gt;" style="edgeLabel;html=1;align=center;verticalAlign=middle;resizable=0;points=[];labelBackgroundColor=none;" parent="ul5spbDsc-mCCxbf8Q7h-14" vertex="1" connectable="0">
          <mxGeometry x="-0.0983" relative="1" as="geometry">
            <mxPoint x="-2" y="-13" as="offset" />
          </mxGeometry>
        </mxCell>
        <mxCell id="mHMLf56qSsXozBjdQAsA-1" value="&lt;font size=&quot;1&quot; face=&quot;Garamond&quot;&gt;&lt;b style=&quot;font-size: 26px;&quot;&gt;Sequences Buffer&lt;/b&gt;&lt;/font&gt;" style="rounded=0;whiteSpace=wrap;html=1;fillColor=#e1d5e7;strokeColor=#9673a6;" vertex="1" parent="1">
          <mxGeometry x="320" y="520" width="170" height="120" as="geometry" />
        </mxCell>
        <mxCell id="mHMLf56qSsXozBjdQAsA-2" value="&lt;font size=&quot;1&quot; face=&quot;Garamond&quot;&gt;&lt;b style=&quot;font-size: 26px;&quot;&gt;Max Registers&lt;/b&gt;&lt;/font&gt;" style="rounded=0;whiteSpace=wrap;html=1;fillColor=#fff2cc;strokeColor=#d6b656;" vertex="1" parent="1">
          <mxGeometry x="550" y="520" width="170" height="120" as="geometry" />
        </mxCell>
        <mxCell id="mHMLf56qSsXozBjdQAsA-3" value="" style="endArrow=classic;html=1;rounded=0;exitX=1;exitY=0.75;exitDx=0;exitDy=0;strokeWidth=3;" edge="1" parent="1" source="ul5spbDsc-mCCxbf8Q7h-1">
          <mxGeometry width="50" height="50" relative="1" as="geometry">
            <mxPoint x="730" y="360" as="sourcePoint" />
            <mxPoint x="870" y="410" as="targetPoint" />
          </mxGeometry>
        </mxCell>
        <mxCell id="mHMLf56qSsXozBjdQAsA-4" value="&lt;font face=&quot;Garamond&quot; style=&quot;font-size: 14px;&quot;&gt;database_sequence_out&lt;/font&gt;" style="edgeLabel;html=1;align=center;verticalAlign=middle;resizable=0;points=[];labelBackgroundColor=none;" vertex="1" connectable="0" parent="mHMLf56qSsXozBjdQAsA-3">
          <mxGeometry x="-0.0983" relative="1" as="geometry">
            <mxPoint x="-2" y="-13" as="offset" />
          </mxGeometry>
        </mxCell>
        <mxCell id="mHMLf56qSsXozBjdQAsA-5" value="" style="endArrow=classic;html=1;rounded=0;exitX=0.25;exitY=0;exitDx=0;exitDy=0;entryX=0.681;entryY=1.001;entryDx=0;entryDy=0;entryPerimeter=0;strokeWidth=3;" edge="1" parent="1" source="mHMLf56qSsXozBjdQAsA-2" target="ul5spbDsc-mCCxbf8Q7h-1">
          <mxGeometry width="50" height="50" relative="1" as="geometry">
            <mxPoint x="510" y="450" as="sourcePoint" />
            <mxPoint x="560" y="400" as="targetPoint" />
          </mxGeometry>
        </mxCell>
        <mxCell id="mHMLf56qSsXozBjdQAsA-11" value="max_row" style="edgeLabel;html=1;align=center;verticalAlign=middle;resizable=0;points=[];fontSize=14;fontFamily=Garamond;" vertex="1" connectable="0" parent="mHMLf56qSsXozBjdQAsA-5">
          <mxGeometry x="-0.107" y="-1" relative="1" as="geometry">
            <mxPoint as="offset" />
          </mxGeometry>
        </mxCell>
        <mxCell id="mHMLf56qSsXozBjdQAsA-6" value="" style="endArrow=classic;html=1;rounded=0;exitX=0.75;exitY=0;exitDx=0;exitDy=0;entryX=0.894;entryY=1;entryDx=0;entryDy=0;entryPerimeter=0;strokeWidth=3;" edge="1" parent="1" source="mHMLf56qSsXozBjdQAsA-2" target="ul5spbDsc-mCCxbf8Q7h-1">
          <mxGeometry width="50" height="50" relative="1" as="geometry">
            <mxPoint x="680" y="520" as="sourcePoint" />
            <mxPoint x="680.1999999999999" y="440" as="targetPoint" />
          </mxGeometry>
        </mxCell>
        <mxCell id="mHMLf56qSsXozBjdQAsA-12" value="&lt;font style=&quot;font-size: 14px;&quot; face=&quot;Garamond&quot;&gt;max_col&lt;/font&gt;" style="edgeLabel;html=1;align=center;verticalAlign=middle;resizable=0;points=[];" vertex="1" connectable="0" parent="mHMLf56qSsXozBjdQAsA-6">
          <mxGeometry x="-0.1292" y="1" relative="1" as="geometry">
            <mxPoint y="-1" as="offset" />
          </mxGeometry>
        </mxCell>
        <mxCell id="mHMLf56qSsXozBjdQAsA-7" value="" style="endArrow=classic;html=1;rounded=0;exitX=0.25;exitY=0;exitDx=0;exitDy=0;entryX=0.106;entryY=0.998;entryDx=0;entryDy=0;entryPerimeter=0;strokeWidth=3;" edge="1" parent="1" source="mHMLf56qSsXozBjdQAsA-1" target="ul5spbDsc-mCCxbf8Q7h-1">
          <mxGeometry width="50" height="50" relative="1" as="geometry">
            <mxPoint x="362.65999999999997" y="520" as="sourcePoint" />
            <mxPoint x="361.65999999999997" y="440" as="targetPoint" />
          </mxGeometry>
        </mxCell>
        <mxCell id="mHMLf56qSsXozBjdQAsA-9" value="query_sequence_read" style="edgeLabel;html=1;align=center;verticalAlign=middle;resizable=0;points=[];fontFamily=Garamond;fontSize=14;" vertex="1" connectable="0" parent="mHMLf56qSsXozBjdQAsA-7">
          <mxGeometry x="-0.0902" relative="1" as="geometry">
            <mxPoint y="-13" as="offset" />
          </mxGeometry>
        </mxCell>
        <mxCell id="mHMLf56qSsXozBjdQAsA-8" value="" style="endArrow=classic;html=1;rounded=0;exitX=0.75;exitY=0;exitDx=0;exitDy=0;entryX=0.894;entryY=1;entryDx=0;entryDy=0;entryPerimeter=0;strokeWidth=3;" edge="1" parent="1">
          <mxGeometry width="50" height="50" relative="1" as="geometry">
            <mxPoint x="447.65999999999997" y="520" as="sourcePoint" />
            <mxPoint x="447.65999999999997" y="440" as="targetPoint" />
          </mxGeometry>
        </mxCell>
        <mxCell id="mHMLf56qSsXozBjdQAsA-10" value="database_sequence_read" style="edgeLabel;html=1;align=center;verticalAlign=middle;resizable=0;points=[];fontFamily=Garamond;fontSize=14;" vertex="1" connectable="0" parent="mHMLf56qSsXozBjdQAsA-8">
          <mxGeometry x="-0.0875" y="1" relative="1" as="geometry">
            <mxPoint y="7" as="offset" />
          </mxGeometry>
        </mxCell>
        <mxCell id="mHMLf56qSsXozBjdQAsA-13" value="" style="endArrow=none;html=1;rounded=0;strokeWidth=3;startArrow=classic;startFill=1;endFill=0;" edge="1" parent="1">
          <mxGeometry width="50" height="50" relative="1" as="geometry">
            <mxPoint x="681" y="240" as="sourcePoint" />
            <mxPoint x="681" y="320" as="targetPoint" />
          </mxGeometry>
        </mxCell>
        <mxCell id="mHMLf56qSsXozBjdQAsA-14" value="next_col" style="edgeLabel;html=1;align=center;verticalAlign=middle;resizable=0;points=[];fontFamily=Garamond;fontSize=14;" vertex="1" connectable="0" parent="mHMLf56qSsXozBjdQAsA-13">
          <mxGeometry x="-0.1879" y="-2" relative="1" as="geometry">
            <mxPoint y="7" as="offset" />
          </mxGeometry>
        </mxCell>
      </root>
    </mxGraphModel>
  </diagram>
</mxfile>
